# xmcd
#
# Track frame offsets:
#	150
#	10062
#	12565
#	24510
#	44674
#	55415
#	76563
#	98560
#	102755
#	122829
#	131197
#	139344
#
# Disc length: 1968 seconds
#
# Revision: 1
# Processed by: cddbd v1.4PL0 Copyright (c) Steve Scherf et al.
# Submitted via: audiograbber 1.82.02
#
DISCID=9a07ae0c
DTITLE=The Gourds - Growin' A Beard (The Soundtrack)
DYEAR=1900
DGENRE=
TTITLE0=Lion's Mane
TTITLE1=Lion's Mane Instrumental
TTITLE2=Chief of the Fuzzers
TTITLE3=Chief of the Fuzzers (long play)
TTITLE4=Shamrock Bound
TTITLE5=Shamrock Bound (long play)
TTITLE6=Claude's Lament
TTITLE7=Hangman Drums
TTITLE8=Hangman
TTITLE9=Max's Hoe-Down
TTITLE10=Max's Plucky Hoe-Down
TTITLE11=Get Your Kicks on Route 66
EXTD=
EXTT0=
EXTT1=
EXTT2=
EXTT3=
EXTT4=
EXTT5=
EXTT6=
EXTT7=
EXTT8=
EXTT9=
EXTT10=
EXTT11=
PLAYORDER=
